Oxygen-Bold.ufo
<glyph name="asterisk" format="1">
  <advance width="1104"/>
  <unicode hex="002A"/>
  <outline>
    <contour>
      <point x="375" y="562" type="line"/>
      <point x="171" y="676" type="line"/>
      <point x="413" y="982" type="line"/>
      <point x="71" y="1059" type="line"/>
      <point x="135" y="1266" type="line"/>
      <point x="472" y="1133" type="line"/>
      <point x="437" y="1504" type="line"/>
      <point x="665" y="1504" type="line"/>
      <point x="630" y="1133" type="line"/>
      <point x="971" y="1262" type="line"/>
      <point x="1032" y="1054" type="line"/>
      <point x="688" y="982" type="line"/>
      <point x="698" y="968"/>
      <point x="912" y="704"/>
      <point x="933" y="676" type="curve"/>
      <point x="920" y="668"/>
      <point x="744" y="570"/>
      <point x="731" y="562" type="curve"/>
      <point x="549" y="885" type="line"/>
    </contour>
  </outline>
</glyph>
<glyph name="slash" format="1">
  <advance width="949"/>
  <unicode hex="002F"/>
  <outline>
    <contour>
      <point x="52" y="-189" type="line"/>
      <point x="674" y="1489" type="line"/>
      <point x="892" y="1489" type="line"/>
      <point x="265" y="-189" type="line"/>
    </contour>
  </outline>
</glyph>
<glyph name="one" format="1">
  <advance width="686"/>
  <unicode hex="0031"/>
  <outline>
    <contour>
      <point x="303" y="1" type="line"/>
      <point x="303" y="1225" type="line"/>
      <point x="283" y="1212"/>
      <point x="61" y="1120"/>
      <point x="43" y="1115" type="curve"/>
      <point x="43" y="1315" type="line"/>
      <point x="65" y="1325.07"/>
      <point x="316" y="1450.91"/>
      <point x="336" y="1465" type="curve"/>
      <point x="556" y="1465" type="line"/>
      <point x="556" y="1" type="line"/>
    </contour>
  </outline>
</glyph>
<glyph name="nine" format="1">
  <advance width="1215"/>
  <unicode hex="0039"/>
  <outline>
    <contour>
      <point x="624" y="735" type="curve" smooth="yes"/>
      <point x="819" y="735"/>
      <point x="896" y="856"/>
      <point x="896" y="1020" type="curve" smooth="yes"/>
      <point x="896" y="1180"/>
      <point x="804" y="1287"/>
      <point x="629" y="1287" type="curve" smooth="yes"/>
      <point x="449" y="1287"/>
      <point x="345" y="1175"/>
      <point x="345" y="1015" type="curve" smooth="yes"/>
      <point x="345" y="847"/>
      <point x="435" y="735"/>
    </contour>
    <contour>
      <point x="243" y="0" type="line"/>
      <point x="687" y="574" type="line"/>
      <point x="646" y="560"/>
      <point x="615" y="551"/>
      <point x="568" y="551" type="curve" smooth="yes"/>
      <point x="282" y="551"/>
      <point x="82" y="741"/>
      <point x="82" y="1016" type="curve" smooth="yes"/>
      <point x="82" y="1304"/>
      <point x="303" y="1486"/>
      <point x="616" y="1486" type="curve" smooth="yes"/>
      <point x="940" y="1486"/>
      <point x="1165" y="1298"/>
      <point x="1165" y="1005" type="curve" smooth="yes"/>
      <point x="1165" y="818"/>
      <point x="1076" y="683"/>
      <point x="976" y="546" type="curve" smooth="yes"/>
      <point x="952" y="514.233"/>
      <point x="562" y="0"/>
      <point x="562" y="0" type="curve"/>
    </contour>
  </outline>
</glyph>
<glyph name="A" format="1">
  <advance width="1359"/>
  <unicode hex="0041"/>
  <outline>
    <contour>
      <point x="494" y="616" type="curve"/>
      <point x="870" y="616" type="line"/>
      <point x="870" y="616"/>
      <point x="690" y="1193"/>
      <point x="685" y="1212" type="curve"/>
      <point x="680" y="1196"/>
      <point x="494" y="616"/>
    </contour>
    <contour>
      <point x="-3" y="0" type="line"/>
      <point x="536" y="1465" type="line"/>
      <point x="831" y="1465" type="line"/>
      <point x="1362" y="0" type="line"/>
      <point x="1084" y="0" type="line"/>
      <point x="939" y="414" type="line"/>
      <point x="426" y="414" type="line"/>
      <point x="280" y="0" type="line"/>
    </contour>
  </outline>
</glyph>
<glyph name="M" format="1">
  <advance width="1841"/>
  <unicode hex="004D"/>
  <outline>
    <contour>
      <point x="158" y="0" type="line"/>
      <point x="158" y="1465" type="line"/>
      <point x="478" y="1465" type="line"/>
      <point x="921" y="407" type="line"/>
      <point x="1367" y="1465" type="line"/>
      <point x="1683" y="1465" type="line"/>
      <point x="1683" y="0" type="line"/>
      <point x="1433" y="0" type="line"/>
      <point x="1433" y="724" type="line"/>
      <point x="1441" y="1139" type="line"/>
      <point x="1404" y="1029" type="line"/>
      <point x="1029" y="100" type="line"/>
      <point x="797" y="100" type="line"/>
      <point x="430" y="1034" type="line"/>
      <point x="393" y="1144" type="line"/>
      <point x="402" y="720" type="line"/>
      <point x="402" y="0" type="line"/>
    </contour>
  </outline>
</glyph>
<glyph name="bracketleft" format="1">
  <advance width="651"/>
  <unicode hex="005B"/>
  <outline>
    <contour>
      <point x="135" y="-266" type="line"/>
      <point x="135" y="1507" type="line"/>
      <point x="599" y="1507" type="line"/>
      <point x="599" y="1327" type="line"/>
      <point x="387" y="1327" type="line"/>
      <point x="387" y="-85" type="line"/>
      <point x="599" y="-85" type="line"/>
      <point x="599" y="-266" type="line"/>
    </contour>
  </outline>
</glyph>
<glyph name="underscore" format="1">
  <advance width="1155"/>
  <unicode hex="005F"/>
  <outline>
    <contour>
      <point x="72" y="-318" type="line"/>
      <point x="72" y="-144" type="line"/>
      <point x="1086" y="-144" type="line"/>
      <point x="1086" y="-318" type="line"/>
    </contour>
  </outline>
</glyph>
<glyph name="z" format="1">
  <advance width="977"/>
  <unicode hex="007A"/>
  <outline>
    <contour>
      <point x="65" y="0" type="line"/>
      <point x="65" y="159" type="line"/>
      <point x="609" y="917" type="line"/>
      <point x="91" y="917" type="line"/>
      <point x="91" y="1099" type="line"/>
      <point x="899" y="1099" type="line"/>
      <point x="899" y="920" type="line"/>
      <point x="384" y="191" type="line"/>
      <point x="917" y="191" type="line"/>
      <point x="917" y="0" type="line"/>
    </contour>
  </outline>
</glyph>
<glyph name="bar" format="1">
  <advance width="759"/>
  <unicode hex="007C"/>
  <outline>
    <contour>
      <point x="278" y="-380" type="line"/>
      <point x="278" y="1538" type="line"/>
      <point x="481" y="1538" type="line"/>
      <point x="481" y="-380" type="line"/>
    </contour>
  </outline>
</glyph>
<glyph name="brokenbar" format="1">
  <advance width="817"/>
  <unicode hex="00A6"/>
  <outline>
    <contour>
      <point x="306" y="820" type="line"/>
      <point x="306" y="1538" type="line"/>
      <point x="509" y="1538" type="line"/>
      <point x="509" y="820" type="line"/>
    </contour>
    <contour>
      <point x="306" y="-379" type="line"/>
      <point x="306" y="340" type="line"/>
      <point x="509" y="340" type="line"/>
      <point x="509" y="-379" type="line"/>
    </contour>
  </outline>
</glyph>
<glyph name="plusminus" format="1">
  <advance width="1288"/>
  <unicode hex="00B1"/>
  <outline>
    <contour>
      <point x="180" y="0" type="line"/>
      <point x="180" y="177" type="line"/>
      <point x="1109" y="177" type="line"/>
      <point x="1109" y="0" type="line"/>
    </contour>
    <contour>
      <point x="544" y="261" type="line"/>
      <point x="544" y="636" type="line"/>
      <point x="180" y="636" type="line"/>
      <point x="180" y="828" type="line"/>
      <point x="544" y="828" type="line"/>
      <point x="544" y="1196" type="line"/>
      <point x="743" y="1196" type="line"/>
      <point x="743" y="828" type="line"/>
      <point x="1109" y="828" type="line"/>
      <point x="1109" y="636" type="line"/>
      <point x="744" y="636" type="line"/>
      <point x="744" y="261" type="line"/>
    </contour>
  </outline>
</glyph>
<glyph name="acute" format="1">
  <advance width="619"/>
  <unicode hex="00B4"/>
  <outline>
    <contour>
      <point x="191" y="1195" type="line"/>
      <point x="362" y="1578" type="line"/>
      <point x="661" y="1578" type="line"/>
      <point x="346" y="1195" type="line"/>
    </contour>
  </outline>
</glyph>
<glyph name="multiply" format="1">
  <advance width="1395"/>
  <unicode hex="00D7"/>
  <outline>
    <contour>
      <point x="412" y="147" type="line"/>
      <point x="278" y="283" type="line"/>
      <point x="569" y="583" type="line"/>
      <point x="278" y="882" type="line"/>
      <point x="412" y="1020" type="line"/>
      <point x="713" y="725" type="line"/>
      <point x="1013" y="1020" type="line"/>
      <point x="1149" y="881" type="line"/>
      <point x="857" y="583" type="line"/>
      <point x="931" y="511"/>
      <point x="1076" y="357"/>
      <point x="1149" y="284" type="curve"/>
      <point x="1013" y="147" type="line"/>
      <point x="713" y="441" type="line"/>
    </contour>
  </outline>
</glyph>
<glyph name="circumflex" format="1">
  <advance width="775"/>
  <unicode hex="02C6"/>
  <outline>
    <contour>
      <point x="47" y="1163" type="line"/>
      <point x="297" y="1546" type="line"/>
      <point x="505" y="1546" type="line"/>
      <point x="756" y="1163" type="line"/>
      <point x="572" y="1163" type="line"/>
      <point x="398" y="1381" type="line"/>
      <point x="226" y="1163" type="line"/>
    </contour>
  </outline>
</glyph>
<glyph name="caron" format="1">
  <advance width="772"/>
  <unicode hex="02C7"/>
  <outline>
    <contour>
      <point x="302" y="1193" type="line"/>
      <point x="40" y="1546" type="line"/>
      <point x="238" y="1546" type="line"/>
      <point x="399" y="1350" type="line"/>
      <point x="563" y="1546" type="line"/>
      <point x="766" y="1546" type="line"/>
      <point x="504" y="1193" type="line"/>
    </contour>
  </outline>
</glyph>
<glyph name="quotedblbase" format="1">
  <advance width="1005"/>
  <unicode hex="201E"/>
  <outline>
    <contour>
      <point x="512" y="-280" type="line"/>
      <point x="630" y="212" type="line"/>
      <point x="855" y="212" type="line"/>
      <point x="692" y="-280" type="line"/>
    </contour>
    <contour>
      <point x="158" y="-280" type="line"/>
      <point x="269" y="212" type="line"/>
      <point x="500" y="212" type="line"/>
      <point x="331" y="-280" type="line"/>
    </contour>
  </outline>
</glyph>
<glyph name="perthousand" format="1">
  <advance width="2623"/>
  <unicode hex="2030"/>
  <outline>
    <contour>
      <point x="2205" y="-17" type="curve" smooth="yes"/>
      <point x="1969" y="-17"/>
      <point x="1834" y="155"/>
      <point x="1834" y="372" type="curve" smooth="yes"/>
      <point x="1834" y="606"/>
      <point x="1933" y="766"/>
      <point x="2197" y="766" type="curve" smooth="yes"/>
      <point x="2444" y="766"/>
      <point x="2567" y="597"/>
      <point x="2567" y="376" type="curve" smooth="yes"/>
      <point x="2567" y="158"/>
      <point x="2434" y="-17"/>
    </contour>
    <contour>
      <point x="2208" y="142" type="curve" smooth="yes"/>
      <point x="2334" y="142"/>
      <point x="2389" y="246"/>
      <point x="2389" y="377" type="curve" smooth="yes"/>
      <point x="2389" y="508"/>
      <point x="2330" y="608"/>
      <point x="2196" y="608" type="curve" smooth="yes"/>
      <point x="2058" y="608"/>
      <point x="2024" y="503"/>
      <point x="2024" y="372" type="curve" smooth="yes"/>
      <point x="2024" y="240"/>
      <point x="2081" y="142"/>
    </contour>
    <contour>
      <point x="1379" y="-17" type="curve" smooth="yes"/>
      <point x="1143" y="-17"/>
      <point x="1008" y="155"/>
      <point x="1008" y="372" type="curve" smooth="yes"/>
      <point x="1008" y="606"/>
      <point x="1107" y="766"/>
      <point x="1371" y="766" type="curve" smooth="yes"/>
      <point x="1618" y="766"/>
      <point x="1741" y="597"/>
      <point x="1741" y="376" type="curve" smooth="yes"/>
      <point x="1741" y="158"/>
      <point x="1608" y="-17"/>
    </contour>
    <contour>
      <point x="1382" y="142" type="curve" smooth="yes"/>
      <point x="1508" y="142"/>
      <point x="1563" y="246"/>
      <point x="1563" y="377" type="curve" smooth="yes"/>
      <point x="1563" y="508"/>
      <point x="1504" y="608"/>
      <point x="1370" y="608" type="curve" smooth="yes"/>
      <point x="1232" y="608"/>
      <point x="1198" y="503"/>
      <point x="1198" y="372" type="curve" smooth="yes"/>
      <point x="1198" y="240"/>
      <point x="1255" y="142"/>
    </contour>
    <contour>
      <point x="307" y="-32" type="line"/>
      <point x="1208" y="1450" type="line"/>
      <point x="1428" y="1449" type="line"/>
      <point x="520" y="-32" type="line"/>
    </contour>
    <contour>
      <point x="404" y="677" type="curve" smooth="yes"/>
      <point x="181" y="677"/>
      <point x="54" y="847"/>
      <point x="54" y="1067" type="curve" smooth="yes"/>
      <point x="54" y="1288"/>
      <point x="188" y="1461"/>
      <point x="409" y="1461" type="curve" smooth="yes"/>
      <point x="640" y="1461"/>
      <point x="772" y="1291"/>
      <point x="772" y="1070" type="curve" smooth="yes"/>
      <point x="772" y="850"/>
      <point x="630" y="677"/>
    </contour>
    <contour>
      <point x="407" y="836" type="curve" smooth="yes"/>
      <point x="528" y="836"/>
      <point x="583" y="939"/>
      <point x="583" y="1069" type="curve" smooth="yes"/>
      <point x="583" y="1202"/>
      <point x="528" y="1304"/>
      <point x="408" y="1304" type="curve" smooth="yes"/>
      <point x="288" y="1304"/>
      <point x="234" y="1199"/>
      <point x="234" y="1067" type="curve" smooth="yes"/>
      <point x="234" y="934"/>
      <point x="287" y="836"/>
    </contour>
  </outline>
</glyph>
<glyph name="uni2074" format="1">
  <advance width="867"/>
  <unicode hex="2074"/>
  <outline>
    <contour>
      <point x="284" y="953" type="line"/>
      <point x="434" y="953" type="line"/>
      <point x="434" y="1197" type="line"/>
    </contour>
    <contour>
      <point x="436" y="627" type="line"/>
      <point x="436" y="800" type="line"/>
      <point x="84" y="800" type="line"/>
      <point x="84" y="919" type="line"/>
      <point x="435" y="1446" type="line"/>
      <point x="595" y="1446" type="line"/>
      <point x="595" y="953" type="line"/>
      <point x="697" y="953" type="line"/>
      <point x="711" y="800" type="line"/>
      <point x="594" y="800" type="line"/>
      <point x="593" y="627" type="line"/>
    </contour>
  </outline>
</glyph>
<glyph name="notequal" format="1">
  <advance width="1313"/>
  <unicode hex="2260"/>
  <outline>
    <contour>
      <point x="462" y="44" type="line"/>
      <point x="299" y="68" type="line"/>
      <point x="421" y="313" type="line"/>
      <point x="154" y="313" type="line"/>
      <point x="144" y="480" type="line"/>
      <point x="503" y="480" type="line"/>
      <point x="624" y="723" type="line"/>
      <point x="154" y="723" type="line"/>
      <point x="142" y="892" type="line"/>
      <point x="702" y="892" type="line"/>
      <point x="839" y="1152" type="line"/>
      <point x="839" y="1152"/>
      <point x="1002" y="1130"/>
      <point x="1004" y="1130" type="curve"/>
      <point x="885" y="891" type="line"/>
      <point x="1166" y="891" type="line"/>
      <point x="1180" y="722" type="line"/>
      <point x="805" y="722" type="line"/>
      <point x="682" y="479" type="line"/>
      <point x="1167" y="479" type="line"/>
      <point x="1180" y="312" type="line"/>
      <point x="601" y="312" type="line"/>
    </contour>
  </outline>
</glyph>
<glyph name="uniFB03" format="1">
  <advance width="2053"/>
  <unicode hex="FB03"/>
  <outline>
    <contour>
      <point x="1659" y="1259" type="line"/>
      <point x="1659" y="1483" type="line"/>
      <point x="1922" y="1483" type="line"/>
      <point x="1922" y="1259" type="line"/>
    </contour>
    <contour>
      <point x="203" y="0" type="line"/>
      <point x="203" y="925" type="line"/>
      <point x="29" y="925" type="line"/>
      <point x="46" y="1079" type="line"/>
      <point x="203" y="1099" type="line"/>
      <point x="203" y="1160" type="line"/>
      <point x="204" y="1419"/>
      <point x="292" y="1552"/>
      <point x="568" y="1552" type="curve" smooth="yes"/>
      <point x="635" y="1552"/>
      <point x="706" y="1545"/>
      <point x="772" y="1533" type="curve"/>
      <point x="749" y="1338" type="line"/>
      <point x="704" y="1344"/>
      <point x="658" y="1349"/>
      <point x="620" y="1349" type="curve" smooth="yes"/>
      <point x="507" y="1349"/>
      <point x="465" y="1299"/>
      <point x="465" y="1174" type="curve" smooth="yes"/>
      <point x="465" y="1099" type="line"/>
      <point x="963" y="1099" type="line"/>
      <point x="963" y="1160" type="line"/>
      <point x="964" y="1419"/>
      <point x="1052" y="1552"/>
      <point x="1328" y="1552" type="curve" smooth="yes"/>
      <point x="1395" y="1552"/>
      <point x="1466" y="1545"/>
      <point x="1532" y="1533" type="curve"/>
      <point x="1509" y="1338" type="line"/>
      <point x="1464" y="1344"/>
      <point x="1418" y="1349"/>
      <point x="1380" y="1349" type="curve" smooth="yes"/>
      <point x="1267" y="1349"/>
      <point x="1225" y="1299"/>
      <point x="1225" y="1174" type="curve" smooth="yes"/>
      <point x="1225" y="1099" type="line"/>
      <point x="1921" y="1099" type="line"/>
      <point x="1921" y="0" type="line"/>
      <point x="1659" y="0" type="line"/>
      <point x="1659" y="925" type="line"/>
      <point x="1225" y="925" type="line"/>
      <point x="1225" y="0" type="line"/>
      <point x="963" y="0" type="line"/>
      <point x="963" y="925" type="line"/>
      <point x="465" y="925" type="line"/>
      <point x="465" y="0" type="line"/>
    </contour>
  </outline>
</glyph>
<glyph name="uniFB04" format="1">
  <advance width="2149"/>
  <unicode hex="FB04"/>
  <outline>
    <contour>
      <point x="2007" y="-13" type="curve" smooth="yes"/>
      <point x="1695" y="-13"/>
      <point x="1652" y="168"/>
      <point x="1652" y="464" type="curve" smooth="yes"/>
      <point x="1652" y="1337" type="line"/>
      <point x="1599" y="1341"/>
      <point x="1510" y="1352"/>
      <point x="1423" y="1352" type="curve" smooth="yes"/>
      <point x="1252" y="1352"/>
      <point x="1212" y="1300"/>
      <point x="1211" y="1166" type="curve"/>
      <point x="1211" y="1099" type="line"/>
      <point x="1448" y="1099" type="line"/>
      <point x="1448" y="925" type="line"/>
      <point x="1211" y="925" type="line"/>
      <point x="1211" y="0" type="line"/>
      <point x="956" y="0" type="line"/>
      <point x="956" y="925" type="line"/>
      <point x="465" y="925" type="line"/>
      <point x="465" y="0" type="line"/>
      <point x="203" y="0" type="line"/>
      <point x="203" y="925" type="line"/>
      <point x="29" y="925" type="line"/>
      <point x="46" y="1079" type="line"/>
      <point x="203" y="1099" type="line"/>
      <point x="203" y="1160" type="line"/>
      <point x="204" y="1419"/>
      <point x="292" y="1552"/>
      <point x="568" y="1552" type="curve" smooth="yes"/>
      <point x="635" y="1552"/>
      <point x="706" y="1545"/>
      <point x="772" y="1533" type="curve"/>
      <point x="749" y="1338" type="line"/>
      <point x="704" y="1344"/>
      <point x="658" y="1349"/>
      <point x="620" y="1349" type="curve" smooth="yes"/>
      <point x="507" y="1349"/>
      <point x="465" y="1299"/>
      <point x="465" y="1174" type="curve" smooth="yes"/>
      <point x="465" y="1099" type="line"/>
      <point x="956" y="1099" type="line"/>
      <point x="956" y="1144" type="line"/>
      <point x="958" y="1417"/>
      <point x="1080" y="1540"/>
      <point x="1382" y="1540" type="curve" smooth="yes"/>
      <point x="1559" y="1540"/>
      <point x="1810" y="1502"/>
      <point x="1907" y="1496" type="curve"/>
      <point x="1907" y="424" type="line" smooth="yes"/>
      <point x="1907" y="243"/>
      <point x="1919" y="181"/>
      <point x="2075" y="181" type="curve" smooth="yes"/>
      <point x="2121" y="181"/>
      <point x="2126" y="184"/>
      <point x="2139" y="185" type="curve"/>
      <point x="2152" y="1" type="line"/>
      <point x="2127" y="-2"/>
      <point x="2082" y="-13"/>
    </contour>
  </outline>
</glyph>
